<?xml version="1.0" encoding="UTF-8" standalone="no"?>
<!-- Generator: Adobe Illustrator 16.2.1, SVG Export Plug-In . SVG Version: 6.00 Build 0)  -->

<svg
   xmlns:dc="http://purl.org/dc/elements/1.1/"
   xmlns:cc="http://creativecommons.org/ns#"
   xmlns:rdf="http://www.w3.org/1999/02/22-rdf-syntax-ns#"
   xmlns:svg="http://www.w3.org/2000/svg"
   xmlns="http://www.w3.org/2000/svg"
   xmlns:sodipodi="http://sodipodi.sourceforge.net/DTD/sodipodi-0.dtd"
   xmlns:inkscape="http://www.inkscape.org/namespaces/inkscape"
   version="1.1"
   id="Layer_1"
   x="0px"
   y="0px"
   width="512px"
   height="512px"
   viewBox="0 0 512 512"
   enable-background="new 0 0 512 512"
   xml:space="preserve"
   inkscape:version="0.91 r"
   sodipodi:docname="moodle.svg"><metadata
     id="metadata11"><rdf:RDF><cc:Work
         rdf:about=""><dc:format>image/svg+xml</dc:format><dc:type
           rdf:resource="http://purl.org/dc/dcmitype/StillImage" /></cc:Work></rdf:RDF></metadata><defs
     id="defs9" /><sodipodi:namedview
     pagecolor="#ffffff"
     bordercolor="#666666"
     borderopacity="1"
     objecttolerance="10"
     gridtolerance="10"
     guidetolerance="10"
     inkscape:pageopacity="0"
     inkscape:pageshadow="2"
     inkscape:window-width="1366"
     inkscape:window-height="749"
     id="namedview7"
     showgrid="false"
     inkscape:snap-object-midpoints="true"
     inkscape:zoom="0.4609375"
     inkscape:cx="256"
     inkscape:cy="256"
     inkscape:window-x="136"
     inkscape:window-y="900"
     inkscape:window-maximized="1"
     inkscape:current-layer="Layer_1" /><g
     id="g3" /><g
     style="overflow:visible;fill:#333333"
     id="g4296"
     transform="matrix(1.8076386,0,0,1.8076386,19.705346,195.2067)"><path
       id="path4156"
       d="m 62.4,65.2 0,-22.8 c 0,-4.8 -2,-7.2 -5.9,-7.2 -3.9,0 -5.9,2.4 -5.9,7.2 l 0,22.8 -11.7,0 0,-22.8 c 0,-4.8 -1.9,-7.2 -5.8,-7.2 -3.9,0 -5.9,2.4 -5.9,7.2 l 0,22.8 -11.6,0 0,-24.1 c 0,-5 1.7,-8.7 5.2,-11.3 3,-2.3 7.2,-3.4 12.3,-3.4 5.3,0 9.1,1.3 11.6,4 2.1,-2.7 6,-4 11.7,-4 5.2,0 9.3,1.1 12.3,3.4 3.5,2.6 5.2,6.3 5.2,11.3 l 0,24.2 -11.5,0 z"
       style="fill:#333333"
       inkscape:connector-curvature="0" /><path
       id="path4171"
       d="m 96,66.2 c -5.9,0 -10.7,-1.9 -14.6,-5.6 -3.8,-3.7 -5.8,-8.5 -5.8,-14.4 0,-5.9 1.9,-10.7 5.8,-14.4 3.8,-3.7 8.7,-5.6 14.6,-5.6 5.9,0 10.8,1.9 14.6,5.6 3.9,3.7 5.8,8.5 5.8,14.4 0,5.9 -1.9,10.7 -5.8,14.4 -3.9,3.7 -8.8,5.6 -14.6,5.6 z m 0,-30.7 c -2.8,0 -5,1.1 -6.5,3.2 -1.5,2.1 -2.3,4.6 -2.3,7.6 0,2.9 0.7,5.4 2.1,7.4 1.6,2.3 3.8,3.4 6.6,3.4 2.8,0 5,-1.1 6.6,-3.4 1.5,-2 2.2,-4.5 2.2,-7.4 0,-2.9 -0.7,-5.4 -2.1,-7.4 -1.5,-2.3 -3.8,-3.4 -6.6,-3.4 z"
       style="fill:#333333"
       inkscape:connector-curvature="0" /><path
       id="path4186"
       d="m 138,66.2 c -5.9,0 -10.7,-1.9 -14.6,-5.6 -3.8,-3.7 -5.8,-8.5 -5.8,-14.4 0,-5.9 1.9,-10.7 5.8,-14.4 3.8,-3.7 8.7,-5.6 14.6,-5.6 5.9,0 10.8,1.9 14.6,5.6 3.9,3.7 5.8,8.5 5.8,14.4 0,5.9 -1.9,10.7 -5.8,14.4 -3.9,3.7 -8.8,5.6 -14.6,5.6 z m 0,-30.7 c -2.8,0 -5,1.1 -6.5,3.2 -1.5,2.1 -2.3,4.6 -2.3,7.6 0,2.9 0.7,5.4 2.1,7.4 1.6,2.3 3.8,3.4 6.6,3.4 2.8,0 5,-1.1 6.6,-3.4 1.5,-2 2.2,-4.5 2.2,-7.4 0,-2.9 -0.7,-5.4 -2.1,-7.4 -1.5,-2.3 -3.8,-3.4 -6.6,-3.4 z"
       style="fill:#333333"
       inkscape:connector-curvature="0" /><path
       id="path4201"
       d="m 189.8,65.1 0,-3.8 c -1,1.4 -2.8,2.5 -5.3,3.3 -2.2,0.8 -4.3,1.1 -6.3,1.1 -5.5,0 -10,-1.9 -13.3,-5.7 -3.4,-3.8 -5,-8.5 -5,-14.1 0,-5.5 1.6,-10.2 4.9,-13.9 3.3,-3.7 7.7,-5.6 13.1,-5.6 6.2,0 10.1,1.7 11.9,5 l 0,-31.4 11.3,0 0,65.1 -11.3,0 z m 0,-21.6 c 0,-2.1 -1,-4.1 -3,-6 -2,-1.9 -4,-2.9 -6.1,-2.9 -3,0 -5.3,1.2 -7.1,3.6 -1.5,2.1 -2.3,4.8 -2.3,7.9 0,3 0.8,5.6 2.3,7.8 1.7,2.5 4.1,3.7 7.1,3.7 1.8,0 3.7,-0.8 5.9,-2.5 2.1,-1.7 3.2,-3.4 3.2,-5.2 l 0,-6.4 z"
       style="fill:#333333"
       inkscape:connector-curvature="0" /><path
       id="path4216"
       d="m 205.2,65.1 0,-65.1 11.6,0 0,65.1 -11.6,0 z"
       style="fill:#333333"
       inkscape:connector-curvature="0" /><path
       id="path4231"
       d="m 230.7,49.7 c 0.5,2.4 1.7,4.4 3.5,6.1 1.9,1.7 3.9,2.6 6.2,2.6 1.6,0 3.3,-0.4 5.2,-1.2 2.3,-1 3.4,-2.1 3.4,-3.4 l 12.2,-0.1 c -1.7,4.1 -4.7,7.3 -8.8,9.5 -3.9,2.1 -8.1,3.2 -12.8,3.2 -5.9,0 -10.9,-1.9 -14.8,-5.5 -3.9,-3.7 -5.9,-8.5 -5.9,-14.5 0,-6.2 2,-11 5.9,-14.7 3.9,-3.6 9,-5.4 15.2,-5.4 6.8,0 12.1,2.2 15.9,6.7 3.5,4.1 5.3,9.7 5.3,16.7 l -30.5,0 z m 19,-7.2 c -0.5,-2.5 -1.5,-4.5 -3.1,-6.1 -1.8,-1.7 -3.9,-2.6 -6.2,-2.6 -2.4,0 -4.4,0.8 -6.1,2.5 -1.6,1.7 -2.7,3.7 -3.3,6.2 l 18.7,0 z"
       style="fill:#333333"
       inkscape:connector-curvature="0" /><path
       id="path4233"
       d="m 16.7,32.2 c -0.4,2 -0.8,4 -1.2,6 11,3.7 21.4,0.1 26.9,-9.5 -8.1,-5.6 -15.6,0.1 -25.7,3.5"
       style="fill:#333333"
       inkscape:connector-curvature="0" /><path
       id="path4250"
       d="M 16.7,30.7 C 16.3,33 16,35.2 15.6,37.5 26.1,41.1 36.4,38 41.9,28.6 34.9,20.5 27.1,27.2 16.7,30.7"
       style="fill:#333333"
       inkscape:connector-curvature="0" /><path
       id="path4257"
       d="m 29.2,33.4 c -4.8,-1 -10,1.5 -13.6,4.1 -2.3,-16.8 8.1,-16.4 21.7,-12.2 -0.9,4.1 -2.4,9.6 -5,12.9 -0.1,-2.2 -1.1,-3.7 -3.1,-4.8"
       style="fill:#333333"
       inkscape:connector-curvature="0" /><path
       id="path4274"
       d="M 1.2,30.7 C 18.8,20.1 28.7,18.1 49.2,16 25.4,34.8 24.8,30.7 1.2,30.7"
       style="fill:#333333"
       inkscape:connector-curvature="0" /><line
       id="line4276"
       y2="29.799999"
       x2="30.299999"
       y1="16.1"
       x1="49.200001"
       style="fill:#333333;stroke:#4a4a4c;stroke-width:0.5" /><path
       id="path4278"
       d="m 26.7,23.4 c 0.2,2.2 -0.3,-2.1 0,0"
       style="opacity:0.23000004;fill:#333333"
       inkscape:connector-curvature="0" /><line
       id="line4280"
       y2="29.799999"
       x2="30.299999"
       y1="30.700001"
       x1="1.2"
       style="fill:#333333;stroke:#a8abad;stroke-width:0.5" /><path
       id="path4282"
       d="M 24.9,23.6 C 12.9,26.9 -2.7,25.8 1.5,42"
       style="display:none;fill:#333333;stroke:#f16922;stroke-width:0.5"
       inkscape:connector-curvature="0" /><path
       id="path4284"
       d="M 2.6,55.7 C 0.8,51.2 -1.4,46.2 1.2,40 2.9,45.8 2.6,50.2 2.6,55.7"
       style="display:none;fill:#333333"
       inkscape:connector-curvature="0" /><path
       id="path4286"
       d="M 24.9,23.6 C 19.9,25 3.5,28.6 3.3,30.7 2.8,34.6 3.2,40.8 3.2,40.8"
       style="fill:#333333;stroke:#f16922;stroke-width:0.5"
       inkscape:connector-curvature="0" /><path
       id="path4288"
       d="M 4.7,55.7 C 2.9,51.2 0.7,46.2 3.3,40 5,45.8 4.7,50.2 4.7,55.7"
       style="fill:#333333"
       inkscape:connector-curvature="0" /><ellipse
       id="ellipse4290"
       ry="0.40000001"
       rx="0.80000001"
       cy="23.299999"
       cx="24.200001"
       style="fill:#333333"
       transform="matrix(0.942,-0.3356,0.3356,0.942,-6.4098,9.4684)" /></g></svg>