<?xml version="1.0" encoding="UTF-8" standalone="no"?>
<!-- Created with Inkscape (http://www.inkscape.org/) -->

<svg
   xmlns:dc="http://purl.org/dc/elements/1.1/"
   xmlns:cc="http://creativecommons.org/ns#"
   xmlns:rdf="http://www.w3.org/1999/02/22-rdf-syntax-ns#"
   xmlns:svg="http://www.w3.org/2000/svg"
   xmlns="http://www.w3.org/2000/svg"
   xmlns:sodipodi="http://sodipodi.sourceforge.net/DTD/sodipodi-0.dtd"
   xmlns:inkscape="http://www.inkscape.org/namespaces/inkscape"
   width="388.14709"
   height="361.72461"
   id="svg3269"
   version="1.1"
   inkscape:version="0.91 r"
   sodipodi:docname="logo-footer.svg">
  <defs
     id="defs3271" />
  <sodipodi:namedview
     id="base"
     pagecolor="#ffffff"
     bordercolor="#666666"
     borderopacity="1.0"
     inkscape:pageopacity="0.0"
     inkscape:pageshadow="2"
     inkscape:zoom="0.9899495"
     inkscape:cx="292.36871"
     inkscape:cy="449.95994"
     inkscape:document-units="px"
     inkscape:current-layer="layer1"
     showgrid="false"
     inkscape:window-width="1366"
     inkscape:window-height="749"
     inkscape:window-x="104"
     inkscape:window-y="900"
     inkscape:window-maximized="1"
     fit-margin-top="0"
     fit-margin-left="0"
     fit-margin-right="0"
     fit-margin-bottom="0" />
  <metadata
     id="metadata3274">
    <rdf:RDF>
      <cc:Work
         rdf:about="">
        <dc:format>image/svg+xml</dc:format>
        <dc:type
           rdf:resource="http://purl.org/dc/dcmitype/StillImage" />
        <dc:title></dc:title>
      </cc:Work>
    </rdf:RDF>
  </metadata>
  <g
     inkscape:label="Capa 1"
     inkscape:groupmode="layer"
     id="layer1"
     transform="translate(-52.917124,-614.27523)">
    <path
       transform="translate(1.3892765,60.280276)"
       sodipodi:type="inkscape:offset"
       inkscape:radius="6.3135142"
       inkscape:original="M 169.78125 560.34375 C 168.0269 560.50782 166.92922 561.39314 165.375 563.3125 C 162.91825 566.34666 162.54356 568.82374 163 578.875 C 163.41659 588.04825 164.15854 591.29765 166.1875 592.78125 C 169.62796 595.29704 169.62962 595.34143 164.25 603.3125 C 161.72303 607.0568 158.58611 612.6582 157.28125 615.78125 C 155.97637 618.90429 149.86866 628.21303 143.71875 636.4375 C 132.64325 651.24928 132.515 651.52041 130.03125 666.25 C 128.65211 674.42896 126.54915 682.66169 125.34375 684.53125 C 124.13836 686.40081 122.61039 690.50338 121.96875 693.65625 C 121.11028 697.87464 119.61324 700.00483 116.28125 701.6875 C 104.98984 707.38964 97.13433 713.43613 94.875 718.1875 C 92.5458 723.0859 92.52472 731.58303 94.8125 736.6875 C 95.50165 738.22527 94.4413 739.84792 91.625 741.59375 C 90.72098 741.85723 89.93083 742.16062 89.28125 742.46875 C 89.26985 742.47375 89.2613 742.4946 89.25 742.5 C 85.02321 743.28631 78.27725 745.2893 73.6875 747.5625 C 66.08431 751.32841 62.61395 754.12684 60.21875 758.3125 C 57.1804 763.62198 57.13508 764.09749 59.5625 766.53125 C 65.52582 772.50977 88.06814 775.48421 98.21875 771.625 C 100.50486 770.75581 106.89493 770.0244 112.40625 770 C 120.3474 769.9658 122.87831 769.35704 124.6875 767.09375 C 126.50291 764.82254 129.32919 764.17122 138.40625 763.90625 C 151.90507 763.51237 167.27107 760.30205 175.46875 756.15625 C 178.78339 754.47998 182.8206 753.55488 184.71875 754.03125 C 186.57177 754.49635 195.57744 754.05035 204.71875 753.0625 C 213.86007 752.0746 237.09107 751.1044 256.34375 750.90625 C 275.59642 750.70809 294.40783 750.35263 298.15625 750.09375 C 306.75801 749.49943 307.69231 752.20028 301.28125 759.21875 C 294.51191 766.62974 295.65947 776.18401 303.5625 778.1875 C 308.69787 779.48922 310.14896 779.35299 316.0625 777.125 C 319.21841 775.93605 324.38462 774.52446 327.53125 774 C 330.67788 773.47554 338.5305 771.36577 345 769.3125 C 357.33313 765.39805 363.65625 764.61663 363.65625 767 C 363.65625 767.78 365.64168 769.83859 368.0625 771.5625 L 372.4375 774.6875 L 388.21875 769.25 C 408.14032 762.35495 411.74423 761.9902 411.1875 767 C 410.71387 771.26284 412.9772 773.154 418.625 773.1875 C 425.5721 773.2281 430.10321 768.17792 431.25 759.15625 C 434.32556 734.96196 434.30729 734.72304 429.34375 726.65625 C 426.78855 722.50376 423.11627 717.67024 421.1875 715.9375 C 419.25873 714.20476 414.38367 708.93618 410.375 704.21875 C 402.68337 695.16695 376.48539 675.78125 371.9375 675.78125 C 370.46421 675.78125 365.10341 673.83655 360 671.4375 C 348.97043 666.25267 335.12644 663.62415 318.625 663.59375 C 311.50211 663.58065 303.76684 662.59555 299.71875 661.15625 C 288.65082 657.22094 259.39338 651.01704 243.1875 649.1875 C 232.42061 647.97207 228.85063 644.75598 231.625 638.78125 C 233.10296 635.5984 234.59904 634.73395 238.46875 634.71875 C 247.53486 634.69695 249.43843 630.88777 249.0625 613.65625 L 248.75 598.625 L 243.40625 594.21875 C 238.25658 589.95866 235.6765 587.38208 228.71875 579.71875 C 223.51627 573.98876 216.97932 568.35637 213.21875 566.34375 C 210.30986 564.78694 208.91511 564.98319 204.4375 567.625 C 201.3031 569.47447 196.43464 570.78125 192.625 570.78125 C 187.21716 570.78125 185.61952 570.03559 182.84375 566.28125 C 180.66286 563.3314 177.57949 561.43914 173.90625 560.75 C 172.1209 560.41504 170.83386 560.24532 169.78125 560.34375 z "
       style="display:inline;fill:#e6e6e6"
       id="path3123"
       d="m 169.19336,554.05859 c -3.60774,0.33741 -6.85301,2.96995 -8.72461,5.28125 -1.65836,2.04812 -3.13468,5.01914 -3.61523,8.17188 -0.48056,3.15274 -0.393,6.52307 -0.16016,11.65039 0.21447,4.72257 0.47581,8.04794 1.14258,10.95898 0.52181,2.27819 1.55438,4.60463 3.16406,6.39063 -0.53286,0.93603 -1.0207,1.84452 -1.98242,3.26953 -2.80494,4.15618 -5.90528,9.60001 -7.5625,13.56641 -0.1618,0.38724 -2.03784,3.76192 -4.41602,7.38476 -2.37817,3.62284 -5.38583,7.92371 -8.37695,11.92383 -11.08363,14.82265 -12.36986,17.79272 -14.85742,32.54492 -0.65984,3.91314 -1.50333,7.88216 -2.29883,10.98828 -0.39775,1.55306 -0.78604,2.89697 -1.10352,3.84766 -0.31747,0.95069 -0.75437,1.67581 -0.36523,1.07227 -2.16807,3.36267 -3.43705,7.26366 -4.25586,11.2871 -0.65527,3.21989 -0.24835,2.59708 -2.3457,3.65625 -11.84274,5.98056 -20.457188,11.4229 -24.261722,19.42383 -3.074854,6.46654 -3.281203,13.94728 -1.117187,20.73242 -0.256148,0.0986 -0.532788,0.18576 -0.777344,0.29102 -4.860405,0.9711 -11.18755,2.8254 -16.394531,5.4043 -8.033218,3.9789 -13.048101,7.85895 -16.146485,13.27343 -1.552407,2.71247 -2.899343,4.21924 -3.189453,7.81446 -0.145085,1.79797 0.481318,3.97572 1.291016,5.28906 0.809698,1.31334 1.565569,2.02081 2.251953,2.70898 5.421006,5.43483 13.058139,6.93679 21.404297,8.03711 8.346157,1.10033 16.936714,1.17281 23.966796,-1.5 -0.13358,0.0508 2.03071,-0.4931 4.35938,-0.75976 2.32866,-0.26667 5.12414,-0.44407 7.61132,-0.45508 4.12901,-0.0178 7.05526,-0.1189 9.8711,-0.78711 2.81583,-0.66821 5.68569,-2.45267 7.31445,-4.49023 0.0938,-0.11735 -0.56929,0.14174 0.63086,-0.13672 1.20015,-0.27846 3.93302,-0.553 8.33984,-0.68164 14.35892,-0.41898 29.86681,-3.43844 39.72852,-8.42578 1.15353,-0.58336 2.59383,-1.09334 3.71875,-1.35157 1.12492,-0.25823 2.15633,-0.0312 1.14453,-0.28515 1.86552,0.46823 2.68943,0.36566 4.11719,0.375 1.42776,0.009 3.10194,-0.0386 4.99414,-0.13086 3.78439,-0.18459 8.41359,-0.55178 13.10351,-1.0586 8.44433,-0.91257 31.91885,-1.92458 51.01172,-2.12109 17.86811,-0.18391 32.87855,-0.46351 39.07813,-0.76563 -3.5934,4.54059 -5.46253,9.81885 -4.83594,15.03126 0.69462,5.77829 5.1631,11.25095 11.36133,12.82226 5.51165,1.3971 10.12438,1.04476 16.27734,-1.27344 2.5715,-0.96878 7.8394,-2.39802 10.2793,-2.80468 4.17485,-0.69584 11.65683,-2.77679 18.3418,-4.89844 5.80458,-1.84234 10.12148,-2.87993 12.51367,-3.20703 0.32329,0.39999 0.64003,0.83073 0.98633,1.18945 1.14183,1.18282 2.47256,2.31085 3.98242,3.38672 l 0.006,0.004 c 7.9e-4,5.7e-4 0.001,0.001 0.002,0.002 l 4.36719,3.11914 a 6.3141456,6.3141456 0 0 0 5.72656,0.83203 l 15.78125,-5.4375 a 6.3141456,6.3141456 0 0 0 0.008,-0.002 c 7.53527,-2.60803 12.06726,-3.9118 14.95313,-4.59961 0.49573,2.21516 1.50734,4.39287 3.33398,5.91406 3.04886,2.53903 6.49403,2.94785 10.01758,2.96875 5.01136,0.0293 9.93671,-2.05863 13.21875,-5.70898 3.28204,-3.65036 5.02105,-8.44138 5.70703,-13.8379 1.53831,-12.10127 2.40775,-18.22302 2.09961,-23.46484 -0.30813,-5.24181 -2.39804,-9.08648 -4.89258,-13.14062 -2.82415,-4.58957 -6.0072,-9.13631 -9.31445,-12.10743 -1.13015,-1.01528 -6.34558,-6.54909 -10.2207,-11.10937 -4.69604,-5.52647 -13.14617,-12.45532 -21.45313,-18.60156 -4.15348,-3.07313 -8.20335,-5.85834 -11.66797,-7.96875 -1.73231,-1.05521 -3.30738,-1.94243 -4.80273,-2.64453 -1.49535,-0.70211 -2.51308,-1.44922 -5.32422,-1.44922 1.02062,0 0.48147,0.0459 -0.0762,-0.10938 -0.55764,-0.15525 -1.40287,-0.42785 -2.375,-0.78125 -1.94427,-0.7068 -4.42493,-1.7347 -6.80078,-2.85156 -12.12685,-5.70064 -26.88345,-8.41369 -44.04883,-8.44531 -6.54919,-0.0121 -14.28986,-1.17882 -16.80274,-2.07227 -12.40358,-4.41021 -40.99236,-10.37997 -57.9375,-12.29297 -3.75825,-0.42425 -5.66492,-1.1637 -6.51953,-1.52539 0.12185,-0.25786 0.14212,-0.29505 0.18946,-0.38476 -0.17481,0.088 -0.27447,0.0321 0.92773,0.0273 l -0.01,0.002 c 2.7081,-0.007 5.35707,-0.23783 8.03515,-1.40234 2.67808,-1.16451 5.09796,-3.50784 6.42774,-6.1543 2.65862,-5.29109 2.62081,-11.09811 2.42773,-19.95117 l 0,-0.004 -0.3125,-15.02734 a 6.3141456,6.3141456 0 0 0 -2.29688,-4.74023 l -5.33593,-4.40039 -0.008,-0.006 c -4.9782,-4.11867 -7.12425,-6.26776 -14.0293,-13.87305 -5.58765,-6.15421 -11.79786,-11.8086 -17.19531,-14.69727 -1.92188,-1.02857 -4.82368,-2.03104 -7.6875,-1.61523 -2.86383,0.41581 -4.85428,1.59346 -7.28125,3.02539 -1.79111,1.05685 -6.23765,2.2793 -8.60352,2.2793 -2.41374,0 -3.18828,-0.24047 -3.23438,-0.26172 -0.0461,-0.0213 -0.30827,-0.1055 -1.4707,-1.67774 -3.10471,-4.1994 -7.74708,-7.02513 -12.84961,-7.98242 -1.94594,-0.36509 -3.6795,-0.69181 -5.87695,-0.48633 z M 86.746094,736.6875 c -0.02679,0.0118 -0.02066,0.0195 -0.04687,0.0312 -0.03729,0.0174 -0.08603,0.0274 -0.123047,0.0449 l 0.169922,-0.0762 z m -0.140625,0.0898 c -0.426222,0.19705 -0.526469,0.33581 -0.806641,0.51368 0.278767,-0.17494 0.312742,-0.2896 0.728516,-0.48829 l 0.07813,-0.0254 z m -2.052735,1.34961 c -0.225469,0.28812 -0.296907,0.51521 -0.304687,0.52539 -0.0089,0.0117 0.0059,-0.18824 0.304687,-0.52539 z" />
    <g
       transform="scale(0.64366194,1.5536106)"
       style="font-style:normal;font-variant:normal;font-weight:normal;font-stretch:normal;font-size:123.34525299px;line-height:125%;font-family:'Arial Black';-inkscape-font-specification:'Arial Black, Normal';text-align:start;letter-spacing:0px;word-spacing:0px;writing-mode:lr-tb;text-anchor:start;display:inline;fill:#e6e6e6;fill-opacity:1;stroke:none"
       id="text3109">
      <path
         d="m 98.928381,538.41521 30.053359,0 15.65907,27.16246 15.17724,-27.16246 29.75223,0 -27.46359,42.7613 30.05336,45.53174 -30.65564,0 -17.40565,-28.367 -17.46588,28.367 -30.474949,0 30.474949,-46.01356 -27.704499,-42.27948 z"
         style="font-style:normal;font-variant:normal;font-weight:normal;font-stretch:normal;font-size:123.34525299px;line-height:125%;font-family:'Arial Black';-inkscape-font-specification:'Arial Black, Normal';text-align:start;writing-mode:lr-tb;text-anchor:start;fill:#e6e6e6"
         id="path3338"
         inkscape:connector-curvature="0" />
      <path
         d="m 200.83276,538.41521 73.11579,0 0,18.85111 -45.77265,0 0,14.03293 42.46015,0 0,18.00793 -42.46015,0 0,17.40565 47.09765,0 0,19.99542 -74.44079,0 0,-88.29304 z"
         style="font-style:normal;font-variant:normal;font-weight:normal;font-stretch:normal;font-size:123.34525299px;line-height:125%;font-family:'Arial Black';-inkscape-font-specification:'Arial Black, Normal';text-align:start;writing-mode:lr-tb;text-anchor:start;fill:#e6e6e6"
         id="path3340"
         inkscape:connector-curvature="0" />
      <path
         d="m 290.39057,626.70825 0,-88.29304 45.47152,0 q 12.6477,0 19.33292,2.16818 6.68522,2.16818 10.78067,8.07044 4.09544,5.84204 4.09544,14.27384 0,7.34772 -3.13181,12.70794 -3.13181,5.29999 -8.61249,8.61248 -3.49317,2.10796 -9.57612,3.49318 4.8784,1.62613 7.10681,3.25227 1.50568,1.08409 4.33636,4.63749 2.8909,3.5534 3.85454,5.48067 l 13.18975,25.59655 -30.83632,0 -14.57497,-26.98177 q -2.77045,-5.23977 -4.93863,-6.80567 -2.95113,-2.04773 -6.68522,-2.04773 l -2.40908,0 0,35.83517 -27.40337,0 z m 27.40337,-52.51809 11.50339,0 q 1.86704,0 7.22726,-1.20455 2.71022,-0.54204 4.39658,-2.77045 1.74659,-2.2284 1.74659,-5.11931 0,-4.27613 -2.71022,-6.56476 -2.71023,-2.28863 -10.1784,-2.28863 l -11.9852,0 0,17.9477 z"
         style="font-style:normal;font-variant:normal;font-weight:normal;font-stretch:normal;font-size:123.34525299px;line-height:125%;font-family:'Arial Black';-inkscape-font-specification:'Arial Black, Normal';text-align:start;writing-mode:lr-tb;text-anchor:start;fill:#e6e6e6"
         id="path3342"
         inkscape:connector-curvature="0" />
      <path
         d="m 386.27222,626.70825 0,-88.29304 45.47152,0 q 12.64771,0 19.33292,2.16818 6.68522,2.16818 10.78067,8.07044 4.09545,5.84204 4.09545,14.27384 0,7.34772 -3.13182,12.70794 -3.13181,5.29999 -8.61248,8.61248 -3.49318,2.10796 -9.57612,3.49318 4.8784,1.62613 7.1068,3.25227 1.50568,1.08409 4.33636,4.63749 2.8909,3.5534 3.85454,5.48067 l 13.18975,25.59655 -30.83631,0 -14.57498,-26.98177 q -2.77045,-5.23977 -4.93863,-6.80567 -2.95113,-2.04773 -6.68521,-2.04773 l -2.40909,0 0,35.83517 -27.40337,0 z m 27.40337,-52.51809 11.50339,0 q 1.86704,0 7.22726,-1.20455 2.71022,-0.54204 4.39658,-2.77045 1.74659,-2.2284 1.74659,-5.11931 0,-4.27613 -2.71022,-6.56476 -2.71022,-2.28863 -10.17839,-2.28863 l -11.98521,0 0,17.9477 z"
         style="font-style:normal;font-variant:normal;font-weight:normal;font-stretch:normal;font-size:123.34525299px;line-height:125%;font-family:'Arial Black';-inkscape-font-specification:'Arial Black, Normal';text-align:start;writing-mode:lr-tb;text-anchor:start;fill:#e6e6e6"
         id="path3344"
         inkscape:connector-curvature="0" />
      <path
         d="m 476.31187,582.62196 q 0,-21.62156 12.04543,-33.66699 12.04544,-12.04543 33.54654,-12.04543 22.04314,0 33.96812,11.86475 11.92498,11.80452 11.92498,33.12494 0,15.47839 -5.23976,25.41587 -5.17954,9.87726 -15.05679,15.41816 -9.81703,5.48067 -24.51246,5.48067 -14.93634,0 -24.75337,-4.75795 -9.7568,-4.75794 -15.83975,-15.05679 -6.08294,-10.29885 -6.08294,-25.77723 z m 27.28291,0.12045 q 0,13.37044 4.93862,19.21247 4.99886,5.84204 13.55112,5.84204 8.79317,0 13.61134,-5.72158 4.81817,-5.72158 4.81817,-20.53747 0,-12.46702 -5.05908,-18.18861 -4.99885,-5.7818 -13.61134,-5.7818 -8.25112,0 -13.24998,5.84203 -4.99885,5.84204 -4.99885,19.33292 z"
         style="font-style:normal;font-variant:normal;font-weight:normal;font-stretch:normal;font-size:123.34525299px;line-height:125%;font-family:'Arial Black';-inkscape-font-specification:'Arial Black, Normal';text-align:start;writing-mode:lr-tb;text-anchor:start;fill:#e6e6e6"
         id="path3346"
         inkscape:connector-curvature="0" />
      <path
         d="m 582.91396,538.41521 25.4761,0 33.2454,48.84424 0,-48.84424 25.717,0 0,88.29304 -25.717,0 -33.06472,-48.48287 0,48.48287 -25.65678,0 0,-88.29304 z"
         style="font-style:normal;font-variant:normal;font-weight:normal;font-stretch:normal;font-size:123.34525299px;line-height:125%;font-family:'Arial Black';-inkscape-font-specification:'Arial Black, Normal';text-align:start;writing-mode:lr-tb;text-anchor:start;fill:#e6e6e6"
         id="path3348"
         inkscape:connector-curvature="0" />
    </g>
    <path
       style="display:inline;fill:#1a1a1a"
       d="m 171.90888,619.97032 c -1.7544,0.16407 -2.8521,1.04938 -4.4063,2.96875 -2.4567,3.03416 -2.8314,5.51124 -2.375,15.5625 0.4166,9.17325 1.1585,12.42265 3.1875,13.90625 3.4405,2.51579 3.4421,2.56018 -1.9375,10.53125 -2.527,3.7443 -5.6639,9.3457 -6.9687,12.46875 -1.3049,3.12304 -7.4126,12.43178 -13.5625,20.65625 -11.0755,14.81178 -11.2038,15.08291 -13.6875,29.8125 -1.3792,8.17896 -3.4821,16.41169 -4.6875,18.28125 -1.2054,1.86956 -2.7334,5.97213 -3.375,9.125 -0.8585,4.21839 -2.3556,6.34858 -5.6875,8.03125 -11.2915,5.70214 -19.146974,11.74863 -21.406304,16.5 -2.3292,4.8984 -2.35028,13.39553 -0.0625,18.49996 0.68915,1.5378 -0.3712,3.1605 -3.1875,4.9063 -0.90402,0.2635 -1.69417,0.5669 -2.34375,0.875 -0.0114,0 -0.0199,0.026 -0.0312,0.031 -4.22679,0.7863 -10.97275,2.7893 -15.5625,5.0625 -7.60319,3.7659 -11.07355,6.5643 -13.46875,10.75 -3.03835,5.3095 -3.08367,5.785 -0.65625,8.2187 5.96332,5.9786 28.50564,8.953 38.656254,5.0938 2.28611,-0.8692 8.6762,-1.6006 14.1875,-1.625 7.9412,-0.034 10.4721,-0.643 12.2813,-2.9063 1.8154,-2.2712 4.6416,-2.9225 13.7187,-3.1875 13.4988,-0.3938 28.8648,-3.6042 37.0625,-7.75 3.3146,-1.6762 7.3519,-2.6013 9.25,-2.125 1.853,0.4651 10.8587,0.019 20,-0.9687 9.1413,-0.9879 32.3723,-1.9581 51.625,-2.1563 19.2527,-0.1981 38.0641,-0.5536 41.8125,-0.8125 8.6018,-0.5943 9.5361,2.1066 3.125,9.125 -6.7693,7.411 -5.6218,16.9653 2.2813,18.9688 5.1353,1.3017 6.5864,1.1655 12.5,-1.0625 3.1559,-1.189 8.3221,-2.6006 11.4687,-3.125 3.1466,-0.5245 10.9993,-2.6342 17.4688,-4.6875 12.3331,-3.9145 18.6562,-4.6959 18.6562,-2.3125 0,0.78 1.9854,2.8386 4.4063,4.5625 l 4.375,3.125 15.7812,-5.4375 c 19.9216,-6.8951 23.5255,-7.2598 22.9688,-2.25 -0.4737,4.2628 1.7897,6.154 7.4375,6.1875 6.9471,0.041 11.4782,-5.0096 12.625,-14.0313 3.0755,-24.1942 3.0572,-24.4332 -1.9063,-32.49996 -2.5552,-4.15249 -6.2275,-8.98601 -8.1562,-10.71875 -1.9288,-1.73274 -6.8039,-7.00132 -10.8125,-11.71875 -7.6917,-9.0518 -33.8897,-28.4375 -38.4375,-28.4375 -1.4733,0 -6.8341,-1.9447 -11.9375,-4.34375 -11.0296,-5.18483 -24.8736,-7.81335 -41.375,-7.84375 -7.1229,-0.0131 -14.8582,-0.9982 -18.9063,-2.4375 -11.0679,-3.93531 -40.3254,-10.13921 -56.5312,-11.96875 -10.7669,-1.21543 -14.3369,-4.43152 -11.5625,-10.40625 1.4779,-3.18285 2.974,-4.0473 6.8437,-4.0625 9.0661,-0.0218 10.9697,-3.83098 10.5938,-21.0625 l -0.3125,-15.03125 -5.3438,-4.40625 c -5.1497,-4.26009 -7.7297,-6.83667 -14.6875,-14.5 -5.2025,-5.72999 -11.7394,-11.36238 -15.5,-13.375 -2.9089,-1.55681 -4.3036,-1.36056 -8.7812,1.28125 -3.1344,1.84947 -8.0029,3.15625 -11.8125,3.15625 -5.4079,0 -7.0055,-0.74566 -9.7813,-4.5 -2.1809,-2.94985 -5.2643,-4.84211 -8.9375,-5.53125 -1.7853,-0.33496 -3.0724,-0.50469 -4.125,-0.40625 z m 1.5625,4.25 c 2.3255,-0.13697 5.1539,1.58451 8.3437,5.1875 4.2959,4.85213 4.9104,5.06139 13.9375,4.65625 5.1979,-0.23316 11.4526,-0.83755 13.875,-1.34375 6.0271,-1.25972 12.5548,2.15386 20.9688,10.9375 3.8503,4.01932 8.9512,8.87171 11.3437,10.8125 l 4.375,3.53125 -6.4687,-0.875 c -7.1683,-0.97892 -8.063,0.26639 -3.2813,4.59375 5.8531,5.297 6.4686,8.09058 2.5938,11.4375 -2.9972,2.58899 -4.9657,2.90404 -13.4063,2.1875 -5.8673,-0.49813 -9.0754,-0.32008 -7.875,0.46875 1.5537,1.02093 1.0248,2.09166 -2.2812,4.59375 -4.011,3.03553 -4.1054,3.41605 -1.625,5.34375 3.7695,2.92976 3.2988,4 -1.6875,4 -4.853,0 -12.6323,-3.45716 -15.4688,-6.875 -1.0277,-1.23826 -2.8206,-2.25 -4,-2.25 -1.1794,0 -2.5494,-1.02565 -3.0312,-2.28125 -0.4819,-1.25561 -2.2062,-2.28125 -3.8438,-2.28125 -2.4425,0 -2.8912,0.87998 -2.5,4.9375 0.3986,4.13423 1.101,4.96875 4.2813,4.96875 3.0003,0 3.6924,0.67633 3.3437,3.21875 -0.3937,2.8704 0.3527,3.2569 6.8438,3.46875 4.01,0.13089 9.6952,0.83181 12.625,1.5625 4.8729,1.21528 4.5321,1.32569 -3.9375,1.46875 -5.0923,0.0857 -9.7342,0.64026 -10.3125,1.21875 -0.5784,0.57835 -4.5288,1.24675 -8.7813,1.5 -5.7821,0.34457 -7.5261,-0.0162 -6.9687,-1.46875 0.4099,-1.06826 -0.551,-3.52476 -2.125,-5.46875 l -2.875,-3.5625 0.9687,7.40625 c 0.5325,4.06391 1.0831,7.53505 1.2188,7.71875 0.1355,0.1837 2.6144,0.51517 5.5,0.75 2.8855,0.23484 6.074,1.46314 7.0937,2.71875 1.6214,1.99649 1.864,1.9542 1.9063,-0.375 0.049,-2.71196 3.0937,-3.88044 3.0937,-1.1875 0,0.81074 1.1302,1.02568 2.5,0.5 1.5331,-0.58824 2.2683,-0.27356 1.9063,0.8125 -0.3235,0.97055 -0.9673,1.61552 -1.4063,1.40625 -0.439,-0.20927 -2.7619,1.14784 -5.1562,3.03125 -2.3944,1.88342 -5.2618,3.4375 -6.375,3.4375 -1.1133,0 -2.7113,1.28456 -3.5625,2.875 -1.1808,2.20622 -0.9995,3.0979 0.7812,3.78125 1.3325,0.51123 1.9371,0.26509 1.4063,-0.59375 -1.6111,-2.6068 1.1016,-1.63273 3.2187,1.15625 1.9162,2.52491 2.0167,2.53344 2.0625,-0.0937 0.066,-3.78646 3.7695,-7.18849 8.8125,-8.09375 2.3073,-0.41412 5.5446,-2.34873 7.2188,-4.3125 5.2575,-6.1671 12.9375,-8.91522 12.9375,-4.625 0,1.25561 -0.658,2.28125 -1.4688,2.28125 -0.8108,0 -1.0865,0.9847 -0.625,2.1875 0.4615,1.20264 1.7541,1.83635 2.875,1.40625 1.1209,-0.43026 3.5443,0.0347 5.4063,1.03125 3.0609,1.63808 3.3167,1.5094 2.5625,-1.375 -0.7103,-2.71592 -0.4233,-2.96762 1.9687,-1.6875 1.5454,0.82703 3.2269,2.14152 3.7188,2.9375 0.4918,0.79598 1.916,1.05044 3.1875,0.5625 1.2898,-0.49494 3.9083,0.62313 5.9062,2.5 3.1629,2.97146 3.7385,3.07995 4.9375,0.9375 1.139,-2.0353 1.7882,-2.13179 4.0625,-0.46875 1.8865,1.37934 2.9686,4.85684 3.5625,11.40625 1.1019,12.15065 3.3723,10.91551 2.5313,-1.375 l -0.625,-9.3125 4.7812,0.9375 c 2.6345,0.5269 6.0569,0.96875 7.5938,0.96875 1.5368,0 4.1161,1.43391 5.75,3.1875 2.0482,2.1988 3.9661,2.88257 6.1562,2.1875 4.5789,-1.45331 8.928,0.35573 10.1563,4.21875 0.5851,1.84049 1.2278,7.86407 1.4062,13.40625 0.1785,5.54219 0.8136,10.88492 1.4063,11.84375 1.7446,2.82306 3.5527,0.53636 2.7812,-3.5 -0.3916,-2.0484 0.5022,-5.73614 1.9688,-8.21875 2.5862,-4.3782 2.5444,-4.70093 -0.75,-10.03125 l -3.375,-5.46875 3.2187,0 c 4.0037,0 12.5744,4.22553 14.2188,7.03125 1.303,2.22372 5.625,2.89995 5.625,0.875 0,-0.66966 -0.86,-2.12614 -1.9063,-3.21875 -1.5565,-1.62544 -0.9206,-1.77615 3.4375,-0.875 7.6796,1.58785 10.3545,3.34321 10.9063,7.09375 0.2677,1.81964 1.3991,3.60591 2.5,3.96875 1.5253,0.5027 1.7531,-0.66189 0.9687,-4.84375 -0.6805,-3.62696 -0.4618,-5.46875 0.6563,-5.46875 0.9302,0 1.6875,1.3571 1.6875,3.03125 0,3.9143 2.4987,3.9143 4.5937,0 0.896,-1.67415 2.2862,-3.03125 3.0938,-3.03125 2.5078,0 1.593,7.41487 -1.7188,14.125 l -3.1562,6.40625 3.6875,-4.4375 c 7.1053,-8.57589 5.6139,-1.22179 -1.9375,9.53125 -4.1685,5.93576 -7.5938,11.19149 -7.5938,11.6875 0,0.496 3.4514,-2.05227 7.6563,-5.65625 8.3212,-7.13232 12.7147,-16.47279 9.3437,-19.84375 -0.9777,-0.97755 -1.7247,-3.52172 -1.6562,-5.65625 0.1229,-3.8618 0.1186,-3.85582 2.2187,0.6875 2.0406,4.41427 2.1707,4.43569 3.125,1.125 0.543,-1.88342 1.8459,-3.40625 2.9063,-3.40625 4.5343,0 4.9287,12.25521 0.625,19.21875 -3.6585,5.91947 -2.8778,6.37662 3.3125,1.96875 3.8496,-2.74119 4.4375,-4.09837 4.4375,-10.59375 0,-5.91172 0.4584,-7.26919 2.2187,-6.59375 1.2214,0.46876 2.8435,3.67525 3.625,7.15625 1.0912,4.86081 1.469,5.39526 1.5938,2.25 0.1927,-4.84361 3.2187,-7.45835 3.2187,-2.78125 0,3.64645 4.3876,12.8937 5.5625,11.71875 0.4246,-0.42462 0.03,-2.15302 -0.875,-3.84375 -4.3528,-8.13331 0.7367,-8.56365 7.4688,-0.625 2.9519,3.481 4.44,4.51272 3.8437,2.65625 -1.9977,-6.22021 1.843,0.19009 5.1875,8.65625 3.4725,8.7888 3.4586,12.11078 -0.125,23.6875 -0.8422,2.72048 -2.1236,4.9375 -2.875,4.9375 -0.786,0 -0.7689,-1.59436 0.062,-3.78125 2.054,-5.40246 -1.8428,-26.04392 -4.5937,-24.34375 -0.7263,0.44882 -0.2866,4.27247 0.9687,8.5 1.2555,4.22737 2.072,8.99007 1.8125,10.59375 -0.4365,2.69674 -4.0358,-3.45086 -13.25,-22.625 -2.1741,-4.52445 -2.4777,-4.72522 -2.9375,-1.71875 -0.2825,1.84643 0.9089,5.29296 2.6563,7.65625 3.3304,4.50482 4.2486,8.30899 1.625,6.6875 -0.8446,-0.5223 -2.9963,-0.47287 -4.7813,0.0937 -2.866,0.90952 -2.3828,1.48587 4.0938,5.03125 5.1822,2.83692 7.8149,5.43428 8.9687,8.84375 2.1309,6.29676 7.3029,10.18931 17.5938,13.18751 5.983,1.7432 8.8046,1.9646 9.9062,0.7812 1.0425,-1.1198 0.9678,-1.874 -0.2187,-2.3125 -3.1074,-1.1483 0.1174,-8.7618 4.3437,-10.24996 4.3054,-1.51602 8.8125,-0.39053 8.8125,2.1875 0,0.9135 -0.563,1.33087 -1.25,0.90625 -1.4387,-0.88912 -11.6205,4.94201 -10.5312,6.03121 0.3967,0.397 2.4402,0.057 4.5625,-0.75 2.8212,-1.0725 4.6249,-0.875 6.6875,0.6875 2.6253,1.9888 2.4992,2.1427 -1.75,2.2188 -2.5113,0.045 -6.2824,1.4235 -8.375,3.0625 l -3.7813,2.9687 4.8125,-1.7812 c 3.812,-1.4063 5.3185,-1.3583 7.2188,0.2187 3.9815,3.3045 2.8624,3.9063 -7.375,3.9063 -8.5449,0 -10.3568,0.5284 -14.0938,4.0937 -5.2069,4.9678 -12.0339,7.7276 -16,6.4688 -2.261,-0.7176 -2.8049,-0.3071 -2.4375,1.8437 0.3942,2.3076 -0.4501,2.7782 -4.8125,2.5625 -2.9078,-0.1438 -5.5412,-1.0296 -5.8437,-1.9375 -0.3026,-0.9077 -1.2251,-1.217 -2.0313,-0.7187 -0.9021,0.5575 -0.7531,1.7097 0.3438,3.0312 1.4119,1.7014 1.2442,2.1563 -0.75,2.1563 -3.2939,0 -4.7522,-4.03 -2.4688,-6.7813 0.9885,-1.191 3.7768,-2.5886 6.2188,-3.125 4.2509,-0.9337 11.8253,-9.1435 10.0625,-10.9062 -0.4658,-0.4659 -2.6536,0.5584 -4.8438,2.2812 -4.1714,3.2812 -8.3437,2.9571 -8.3437,-0.6562 0,-2.6038 -1.8143,-2.7171 -4.25,-0.2813 -1.2726,1.2732 -1.8438,1.3109 -1.8438,0.125 0,-0.9363 2.2869,-3.1283 5.0625,-4.8437 6.8117,-4.2099 10.7956,-8.72381 8.7813,-9.96876 -2.2448,-1.38726 -7.5289,1.73874 -13.375,7.93746 -4.1719,4.4234 -5.3978,4.9954 -7.3125,3.4063 -3.503,-2.9072 -2.752,-6.2345 2.5937,-11.75001 5.523,-5.69833 3.874,-6.4966 -3.9062,-1.90625 -5.3734,3.17038 -7.7593,6.72606 -6.2188,9.21876 1.5428,2.4963 -3.4759,1.4294 -7.0937,-1.5 -3.1263,-2.5316 -3.3272,-3.31375 -1.7188,-6.84376 1.8515,-4.06391 6.6497,-6.7276 18.25,-10.15625 7.7872,-2.30179 8.4081,-4.46875 1.2813,-4.46875 -6.3755,0 -20.1747,6.92978 -23.3125,11.71875 -1.808,2.75915 -2.7731,3.1681 -4.4063,1.8125 -1.1497,-0.95412 -2.0937,-2.59068 -2.0937,-3.625 0,-2.01095 14.0491,-9.90625 17.625,-9.90625 1.1782,0 2.1562,-0.69417 2.1562,-1.53125 0,-1.98581 -5.5001,-1.9448 -9.25,0.0625 -1.6192,0.8666 -2.9214,1.03233 -2.9062,0.375 0.057,-2.93736 2.7271,-4.71239 8.5625,-5.6875 6.0587,-1.01225 12.7187,-5.46158 12.7187,-8.5 0,-2.30484 -1.6223,-1.76709 -7.0937,2.40625 -2.7995,2.13575 -5.0938,3.1513 -5.0938,2.25 0,-2.5205 -8.7678,2.54182 -10.7187,6.1875 -0.9268,1.73168 -3.6787,3.8346 -6.125,4.6875 -3.8013,1.32517 -4.4375,2.36464 -4.4375,7.03125 0,3.54827 1.181,6.74442 3.4062,9.15625 l 3.4375,3.71876 -3.8125,-1.0625 c -4.3633,-1.22137 -12.1875,-9.50379 -12.1875,-12.90626 0,-4.18461 5.0309,-16.04704 8.4375,-19.90625 1.8472,-2.09269 3.8088,-5.83253 4.375,-8.34375 0.566,-2.51122 1.4085,-5.78512 1.8438,-7.25 1.7149,-5.77245 -2.4813,-2.2036 -6.2813,5.34375 -2.2126,4.39463 -6.0161,11.7053 -8.4687,16.25 -2.4527,4.54485 -4.4688,10.36723 -4.4688,12.9375 l 0,4.65625 -3.1875,-4.5625 -3.1875,-4.5625 0.9063,5.125 c 0.4976,2.8252 0.9062,5.70397 0.9062,6.375 0,0.67103 1.1914,1.47676 2.6563,1.8125 1.5986,0.36649 -0.077,1.37868 -4.1875,2.53125 -3.7669,1.05593 -8.232,3.23451 -9.9375,4.81251 -2.1329,1.9737 -4.8729,2.7115 -8.75,2.4062 -4.3525,-0.3428 -5.8222,0.2082 -6.5,2.3438 -1.0056,3.1687 -2.0199,3.3411 -7.4375,1.2812 -5.2249,-1.9864 -4.908,-4.7808 1.4375,-13.09371 5.0566,-6.62459 5.3125,-7.59998 5.3125,-19.09375 0,-11.46226 -2.7763,-22.65625 -5.625,-22.65625 -0.6709,-0.002 -0.9835,6.8529 -0.7188,15.21875 0.479,15.13276 0.4311,15.25153 -4.9687,24 -2.9852,4.83646 -5.4063,10.25706 -5.4063,12.06246 0,3.3582 -3.2147,4.9446 -7.8437,3.8438 -2.2472,-0.5344 -2.1534,-1.3608 0.9687,-7.6875 2.6003,-5.26869 3.3146,-8.75573 2.75,-13.56251 -0.7047,-5.99922 -3.1317,-8.92061 -3.7812,-4.5625 -0.156,1.04634 -0.6671,-3.91613 -1.1563,-11.03125 -1.0197,-14.8273 -2.076,-13.75128 -4.4375,4.5625 -0.9174,7.11512 -2.0501,15.32024 -2.5,18.25 -0.7797,5.07707 -0.6335,4.97176 3,-2.28125 3.6031,-7.19198 3.7656,-7.31571 2.9375,-2.28125 -0.4818,2.92976 -2.0162,7.7332 -3.4062,10.65626 -2.7224,5.7254 -9.1371,9.9567 -11.5,7.5937 -1.759,-1.759 1.3374,-16.66393 5.2187,-25.09371 3.8915,-8.45185 6.6029,-25.31206 5.375,-33.5 -1.6215,-10.81346 -3.8956,-7.96661 -3.9687,4.96875 -0.074,13.13581 -3.0639,30.05865 -5.3125,30.03125 -0.8027,-0.01 -3.0102,4.42196 -4.9063,9.84375 -1.8959,5.42166 -4.1269,10.50196 -4.9375,11.31246 -2.2112,2.2113 -3.4373,0.1156 -1.8125,-3.0937 5.8428,-11.54141 14.8231,-59.58319 11.7188,-62.68751 -1.4418,-1.44175 -1.9446,0.55722 -2.8438,11.71875 -0.4969,6.16816 -1.6502,12.1196 -2.5625,13.21875 -0.9121,1.09916 -2.3178,6.66754 -3.125,12.375 -2.051,14.50084 -4.1925,21.78125 -6.4375,21.78125 -1.0552,0 -2.7551,2.31876 -3.7812,5.15626 -1.878,5.1933 -7.4548,8.3812 -8.75,5 -0.3761,-0.9814 -0.4438,-4.0169 -0.125,-6.75 0.4657,-3.99255 0.1849,-4.62773 -1.4375,-3.28126 -2.2586,1.87446 -5.1966,0.65076 -5.1563,-2.125 0.014,-0.99687 1.7343,-3.40377 3.8125,-5.375 2.2927,-2.17472 3.7813,-5.28727 3.7813,-7.90625 0,-2.37393 0.73,-4.75943 1.625,-5.3125 0.8949,-0.55308 1.4265,-3.72025 1.1875,-7.03125 -0.2769,-3.83395 0.3069,-6.49795 1.625,-7.3125 1.1998,-0.74165 1.7348,-2.61455 1.25,-4.46875 -0.46,-1.75907 -0.3361,-3.53677 0.3125,-3.9375 1.6851,-1.04147 3.5726,-12.78217 3.0625,-19.0625 -0.2381,-2.92976 -0.4834,-7.30909 -0.5625,-9.75 -0.079,-2.44075 -0.8468,-4.6567 -1.6875,-4.9375 -0.9536,-0.31854 -1.505,5.01729 -1.5,14.1875 0,9.19456 -0.6255,14.89782 -1.6563,15.25 -1.1619,0.39693 -1.2325,-2.39995 -0.2812,-9.5 0.8425,-6.2884 0.7701,-11.59583 -0.1563,-14.125 -1.2417,-3.38984 -1.4931,-2.43992 -1.5937,5.75 -0.066,5.38161 -0.9088,11.95276 -1.875,14.625 -1.2146,3.35879 -1.292,6.66874 -0.2813,10.75 1.6586,6.69704 0.5446,11.3666 -6.25,26.09375 -3.9879,8.64392 -6.9375,12.00385 -6.9375,7.9375 0,-0.86401 -1.4076,-2.08334 -3.125,-2.71875 -2.8824,-1.06628 -2.6366,-1.53272 3,-6.0625 6.065,-4.87389 12.093,-14.71951 10.1875,-16.625 -0.5474,-0.54744 -2.1153,0.67645 -3.5,2.71875 -6.539,9.64399 -20.0528,19.6875 -26.4687,19.6875 -1.4858,0 -3.781,1.06217 -5.0938,2.375 -1.5181,1.51799 -3.5404,2.02685 -5.5937,1.375 -2.2634,-0.71836 -3.0485,-0.45803 -2.5938,0.90625 0.7354,2.20622 8.8438,3.78358 8.8438,1.71875 0,-0.7383 2.0512,-1.39725 4.5625,-1.46875 5.3091,-0.15097 5.8761,2.24954 1.625,6.81251 -1.8105,1.9434 -6.6241,3.8579 -12.5625,5 -5.2924,1.0177 -12.0078,2.3429 -14.9375,2.9687 l -5.3125,1.1563 4.4375,1.8125 4.4375,1.8125 -3.3438,2.3437 c -2.4983,1.7506 -6.3854,2.2144 -15.4687,1.8438 -7.3635,-0.3003 -12.1873,0.108 -12.25,1.0312 -0.057,0.8371 -0.6655,0.1429 -1.3438,-1.5312 -0.8352,-2.0615 -0.4307,-3.9902 1.25,-5.9688 2.3019,-2.7098 2.2904,-2.8365 -0.094,-1.9687 -1.953,0.7109 -2.6715,-0.071 -3.0312,-3.1875 -0.9688,-8.39189 -3.5025,-2.31 -2.9688,7.125 0.5942,10.5046 -0.8596,12.9393 -6.8437,11.4375 -1.7991,-0.4516 -3.722,-0.092 -4.2813,0.8125 -1.9567,3.1659 -3.6903,1.5576 -7.75,-7.125 -2.25046,-4.8132 -4.40484,-7.9062 -4.78125,-6.9063 -0.37641,1 0.0461,3.1783 0.9375,4.8438 2.88557,5.3918 1.98367,7.7812 -2.906254,7.7812 -3.2551,0 -4.2787,0.6156 -3.6875,2.1563 0.5635,1.4684 -0.7796,2.4763 -4.25,3.2187 -2.77953,0.5948 -5.89116,1.7509 -6.9375,2.5938 -2.91176,2.3458 -2.27056,-0.1748 1.15625,-4.5313 1.68588,-2.1432 2.65495,-4.3137 2.15625,-4.8125 -0.49869,-0.4986 -1.85299,0.3689 -3,1.9375 -1.147,1.5687 -5.02726,3.4019 -8.625,4.0625 -5.34157,0.9812 -6.80538,0.7568 -8,-1.3125 -2.96009,-5.127 -1.83751,-6.5541 9.375,-11.875 5.1619,-2.4495 11.8243,-5.0536 15.28125,-6.8125 1.89302,-0.3381 4.12607,-0.9152 5.21875,-1.5 2.592604,-1.3875 2.930564,-2.5381 2.031254,-7.2187 -0.589244,-3.06705 -1.252994,-6.6194 -1.468754,-7.87501 -0.21577,-1.25561 0.8814,-4.81304 2.437504,-7.90625 2.2116,-4.39616 5.0057,-6.64912 12.8125,-10.375 11.4076,-5.44433 12.8568,-5.01088 15.7813,4.75 1.803,6.0181 8.1887,13.39955 11.6875,13.5 2.5689,0.074 11.25,-4.58311 11.25,-6.03125 0,-2.91925 -1.9867,-6.24983 -2.875,-4.8125 -0.5206,0.8424 -4.6103,-4.64547 -9.0938,-12.1875 -7.8188,-13.15254 -8.1223,-14.02656 -7.1562,-21.5625 2.0341,-15.86694 4.4646,-26.75113 5.7812,-25.9375 0.7439,0.45932 1.0595,1.62412 0.7188,2.59375 -0.3408,0.96964 0.998,5.47002 2.9687,9.96875 1.9707,4.49873 3.5938,10.9249 3.5938,14.28125 0,7.20172 2.9249,17.84375 4.9062,17.84375 0.7931,0 0.9559,-3.4759 0.375,-8.125 -0.8355,-6.68745 -0.5881,-8.32836 1.4063,-9.09375 3.3697,-1.29305 3.0482,-3.46531 -2.125,-13.96875 -4.8418,-9.83028 -5.8984,-20.02082 -2.875,-27.6875 1.4249,-3.61356 1.8391,-3.83781 2.6875,-1.5625 0.8711,2.33665 1.3323,2.09739 3.5312,-1.625 1.3964,-2.36389 2.7811,-5.95024 3.0625,-8 0.2814,-2.04961 0.9293,-4.41293 1.4375,-5.25 0.5082,-0.83707 1.3864,-3.75314 1.9688,-6.46875 0.5823,-2.71547 1.8853,-5.46093 2.875,-6.09375 0.9896,-0.63268 3.7632,-5.09308 6.1562,-9.90625 2.393,-4.81317 4.8243,-8.75 5.4063,-8.75 0.5819,0 2.5241,-2.77848 4.3437,-6.1875 3.0515,-5.71675 3.1349,-6.55698 1.0313,-10.625 -2.4488,-4.7354 -7.4947,-8.21371 -9.8125,-6.78125 -2.3089,1.42698 -0.8228,11.07673 2.2187,14.4375 1.5447,1.70687 2.2842,3.59612 1.6563,4.21875 -1.5595,1.5463 -8.4598,-7.28497 -8.4688,-10.84375 0,-1.57705 0.7804,-5.54512 1.75,-8.78125 1.1562,-3.85898 2.987,-5.83177 5.3125,-5.96875 z m 20,11.53125 -2.5,3.75 c -1.3791,2.07457 -3.6914,4.98576 -5.1563,6.46875 -3.4308,3.47339 -4.0056,27.0625 -0.6562,27.0625 1.5171,0 2.0312,-2.99011 2.0312,-11.84375 0,-9.00705 0.6777,-12.88167 2.8438,-16.1875 1.5662,-2.39037 3.1203,-3.57637 3.4375,-2.625 0.3171,0.95137 1.4064,1.71875 2.4062,1.71875 2.7336,0 7.0313,5.71492 7.0313,9.3125 0,1.8889 1.248,3.49421 3.0625,3.96875 1.6741,0.43771 3.0312,1.29569 3.0312,1.9375 0,0.64181 1.4604,1.54007 3.2188,2 1.8547,0.48504 2.7339,1.57719 2.125,2.5625 -0.765,1.23735 -1.6382,1.18677 -3.2188,-0.125 -1.3771,-1.14298 -4.6581,-1.43883 -9,-0.84375 l -6.8437,0.9375 0.9687,-8.71875 c 0.8531,-7.76804 0.6979,-8.50162 -1.3437,-6.46875 -1.3921,1.38604 -2.5994,6.32524 -3.0625,12.5625 -0.7055,9.49986 -0.5221,10.28125 2.2812,10.28125 2.063,0 2.7496,0.7351 2.1563,2.28125 -0.4854,1.26474 0.5905,3.62101 2.4062,5.3125 3.9801,3.70793 5.728,2.66562 2.1563,-1.28125 -2.1795,-2.40819 -2.2456,-3.0931 -0.4375,-4.59375 1.1706,-0.97146 3.232,-1.33514 4.5937,-0.8125 1.3617,0.52249 2.5,0.26651 2.5,-0.5625 0,-2.12358 -5.8406,-3.41558 -6.5,-1.4375 -0.2988,0.89643 -1.3999,1.1101 -2.4375,0.46875 -1.448,-0.89491 -1.4617,-1.66422 -0.094,-3.3125 1.962,-2.36404 9.0313,-2.97834 9.0313,-0.78125 0,2.10212 6.2128,0.0371 9.375,-3.125 3.2709,-3.27098 3.542,-4.63495 0.875,-4.09375 -3.1183,0.63268 -9.0221,-3.35653 -8.1875,-5.53125 0.443,-1.15455 -0.5735,-2.34967 -2.3438,-2.8125 -1.7004,-0.44471 -2.7159,-1.43367 -2.25,-2.1875 1.015,-1.64233 10.1258,-0.59592 12.7188,1.46875 2.0224,1.61053 5.5141,0.19429 4.3125,-1.75 -0.8414,-1.36124 -8.4243,-3.32471 -15,-3.90625 -2.3666,-0.20927 -6.3738,-2.35323 -8.9063,-4.75 l -4.625,-4.34375 z m 15,1.53125 c -0.3216,-0.0318 -0.8222,0.34931 -1.5938,1.0625 -1.1677,1.07937 -1.7863,2.46595 -1.4062,3.09375 1.376,2.27304 3.5312,1.06374 3.5312,-1.96875 0,-1.4504 -0.1178,-2.14655 -0.5312,-2.1875 z m 13.8125,25.8125 c -0.6216,0.0445 -1.2963,0.62433 -1.6563,1.5625 -0.5301,1.38132 0.017,2.28125 1.375,2.28125 2.4617,0 3.0239,-2.39069 0.875,-3.71875 -0.1873,-0.11578 -0.3866,-0.13983 -0.5937,-0.125 z m 24.375,0.96875 c 1.2252,-0.0325 2.3405,3.15462 2.7187,8.625 0.3023,4.3718 0.085,7.9375 -0.5,7.9375 -1.7253,0 -4.9208,-11.79357 -3.9062,-14.4375 0.5468,-1.42502 1.1305,-2.11024 1.6875,-2.125 z m -34.875,6.5 c -0.4656,-0.0421 -1.5536,0.89924 -2.7813,2.46875 -1.6369,2.09268 -2.9465,4.47543 -2.9375,5.3125 0.01,0.83708 1.3537,-0.0862 3,-2.0625 1.6463,-1.9761 2.9874,-4.3901 2.9688,-5.34375 -0.01,-0.23837 -0.095,-0.36098 -0.25,-0.375 z m 1.125,6 c -0.2431,-0.0143 -0.5299,0.056 -0.8438,0.25 -0.8371,0.51731 -1.5312,1.63168 -1.5312,2.46875 0,0.83707 0.6941,1.11107 1.5312,0.59375 0.8371,-0.51731 1.5,-1.63168 1.5,-2.46875 0,-0.52317 -0.2512,-0.81983 -0.6562,-0.84375 z m 30.2187,1.84375 c 2.4559,0.0646 4.8509,6.51462 2.9375,9.5625 -1.1708,1.865 -4.2108,2.67197 -11.3437,2.96875 -6.0075,0.25006 -8.9465,-0.10986 -7.6875,-0.9375 1.1221,-0.73738 2.852,-2.97226 3.8437,-4.96875 1.0056,-2.0248 3.4615,-3.86266 5.5625,-4.15625 2.0718,-0.28947 4.5995,-1.2204 5.625,-2.0625 0.3409,-0.2799 0.7117,-0.41548 1.0625,-0.40625 z m -20.4062,0.71875 c 0.837,0 1.5,0.28718 1.5,0.65625 0,0.36907 -0.663,1.10768 -1.5,1.625 -0.8371,0.51731 -1.5313,0.19903 -1.5313,-0.6875 0,-0.88639 0.6942,-1.59375 1.5313,-1.59375 z m -56.7188,29.46875 c -0.461,-0.008 -0.8537,0.51267 -1.4062,1.5 -1.5702,2.80586 -0.4729,7.51667 2.9687,12.78125 1.2312,1.88341 2.9309,3.40625 3.7813,3.40625 2.2009,0 0.298,-10.14427 -2.7813,-14.84375 -1.266,-1.93213 -1.9698,-2.83345 -2.5625,-2.84375 z m 49.0938,5.53125 c -3.0302,0 -4.5625,0.7451 -4.5625,2.25 0,2.18903 -17.3222,11.12956 -34.25,17.6875 -4.1854,1.62148 -9.3136,4.0019 -11.4063,5.28125 l -3.8125,2.34375 3.8125,-0.78125 c 15.1351,-3.00296 25.5893,-5.95251 28.875,-8.1875 5.3328,-3.62741 14.0989,-7.84385 16.4688,-7.90625 2.1576,-0.0565 9.4375,-7.31281 9.4375,-9.40625 0,-0.71486 -2.0513,-1.28125 -4.5625,-1.28125 z m -57.8438,1.5 c -2.178,0 -1.8574,8.86647 0.4063,11.4375 2.4955,2.84087 4.1875,2.83829 4.1875,0 0,-1.25561 -0.631,-2.28125 -1.375,-2.28125 -0.7441,0 -1.3201,-0.85991 -1.2813,-1.90625 0.172,-4.63267 -0.5281,-7.25 -1.9375,-7.25 z m 110.625,3.53125 c -0.6483,-0.11991 -0.5057,1.99229 0.4688,6.3125 0.8159,3.61509 0.7885,7.00753 -0.094,8.65625 -0.9275,1.7329 -0.8758,8.97266 0.1562,20.0625 0.8882,9.54431 1.5105,17.94966 1.375,18.6875 -0.1355,0.738 -0.1614,2.56637 -0.062,4.03125 0.099,1.46488 0.7699,2.65625 1.5,2.65625 2.0286,0 2.8095,-9.4646 2.5625,-31.21875 -0.1785,-15.71399 -0.7914,-20.80297 -2.9375,-24.84375 -1.479,-2.78473 -2.4645,-4.25049 -2.9687,-4.34375 z m -24.8125,5.75 c -0.3537,0.15362 -0.5625,1.41837 -0.5625,3.75 0,2.14214 0.6165,3.53142 1.375,3.0625 0.7585,-0.46876 1.0313,-2.23286 0.5938,-3.90625 -0.5476,-2.09382 -1.0526,-3.05987 -1.4063,-2.90625 z m -27.5625,1.59375 c -0.9635,0.14742 -2.5892,1.84007 -4.9687,5.125 -2.2102,3.0509 -6.5054,6.32094 -10.25,7.78125 -3.5457,1.38269 -7.1845,3.40435 -8.0938,4.5 -1.3404,1.61494 -0.693,1.72699 3.4063,0.59375 12.1116,-3.34814 20.8652,-9.83535 20.9687,-15.53125 0.032,-1.74986 -0.3131,-2.58341 -1.0625,-2.46875 z m 104.875,9.40625 c -0.3488,0.0176 -0.7396,0.93023 -1.4062,2.5625 -0.9126,2.23468 -0.9919,4.83499 -0.2188,6.3125 0.8923,1.70489 -0.142,6.06988 -3.2187,13.53125 -2.4973,6.05584 -4.5465,11.78747 -4.5313,12.71875 0.02,2.36359 8.2593,-12.38134 10.625,-19 1.4218,-3.97822 1.549,-7.05073 0.4375,-11.40625 -0.8397,-3.29049 -1.239,-4.74132 -1.6875,-4.71875 z m -139.75,5.59375 c -2.6493,0 -18.7812,9.85427 -18.7812,11.46875 0,1.97626 4.286,0.13096 12.5312,-5.375 5.5892,-3.73228 8.0017,-6.09375 6.25,-6.09375 z m 124.1563,0 c -0.6712,0 -1.5962,3.27391 -2.0625,7.25 -0.4665,3.9761 -1.5167,11.65349 -2.3125,17.0625 -0.996,6.76949 -0.9326,10.43189 0.1875,11.78125 1.7538,2.11338 5.8505,2.68343 5.8125,0.8125 -0.013,-0.62781 -0.6325,-2.07718 -1.375,-3.25 -0.8277,-1.30735 -0.5885,-4.31085 0.625,-7.75 2.0792,-5.8936 1.4021,-25.90625 -0.875,-25.90625 z m -92.6563,3.21875 c -0.9619,0.17478 -2.3882,1.37593 -4.3437,3.625 -1.8196,2.09268 -4.574,3.8125 -6.125,3.8125 -1.5511,0 -4.9798,1.07099 -7.5938,2.375 -2.614,1.30401 -7.3352,2.78312 -10.5,3.28125 -3.1648,0.49829 -7.3787,2.1726 -9.375,3.71875 -1.9963,1.54599 -5.3768,2.8125 -7.5,2.8125 -3.7851,0 -9.4375,3.77343 -9.4375,6.3125 0,1.67903 2.0763,1.64649 3.9063,-0.0625 0.7952,-0.74256 6.2197,-2.53142 12.0625,-3.96875 5.8426,-1.43733 11.9883,-3.5505 13.6562,-4.71875 3.9934,-2.79704 7.0404,-2.71795 5.9375,0.15625 -1.299,3.38528 3.0483,2.82892 6.3438,-0.8125 1.5417,-1.70367 3.6639,-2.79907 4.6875,-2.40625 2.3451,0.89993 9.7187,-7.85102 9.7187,-11.53125 0,-1.89377 -0.4756,-2.76853 -1.4375,-2.59375 z m -82.25,5.9375 c 0.8371,0 1.5,1.18954 1.5,2.65625 0,1.46685 3.4156,8.42273 7.5625,15.46875 4.147,7.04602 7.1795,13.39868 6.75,14.09375 -2.1582,3.49196 -8.2625,-1.86534 -15.875,-13.90625 -3.1493,-4.98149 -3.9096,-7.47306 -2.875,-9.40625 0.7746,-1.44722 1.4063,-4.05216 1.4063,-5.78125 0,-1.72924 0.6941,-3.125 1.5312,-3.125 z m 255.4063,6.1875 c -0.8674,0.14234 -1.1167,1.46677 -0.3125,3.5625 0.7078,1.84475 1.4739,2.15105 2.625,1 1.151,-1.1509 1.0886,-2.16119 -0.1875,-3.4375 -0.8701,-0.87002 -1.6046,-1.2104 -2.125,-1.125 z m 17.1562,2.28125 c 0.039,0.002 0.081,0.004 0.125,0.0312 0.6989,0.43193 1.25,1.83494 1.25,3.09375 0,1.45879 1.1604,2.11598 3.1875,1.8125 2.2735,-0.34046 4.52,1.3334 7.8438,5.90625 l 4.625,6.40625 -4.5938,5.25 c -2.5356,2.8879 -4.8814,5.89883 -5.1875,6.6875 -0.6366,1.64051 -8.0814,3.76235 -9.2187,2.625 -1.1016,-1.10159 2.3409,-11.375 3.8125,-11.375 0.6873,0 2.5684,0.69605 4.1875,1.5625 2.3215,1.24236 2.9687,1.07766 2.9687,-0.78125 0,-1.2964 0.8291,-3.68766 1.8438,-5.3125 2.8425,-4.5517 0.1525,-5.52129 -4.9063,-1.78125 -3.0157,2.22966 -4.5969,2.69808 -4.6562,1.40625 -0.05,-1.07145 -0.6011,-5.18482 -1.25,-9.125 -0.608,-3.69377 -0.6094,-6.43237 -0.031,-6.40625 z m -173.6562,1.5 c -0.3984,-0.0164 -0.8889,0.0589 -1.5,0.21875 -1.6648,0.43543 -2.6643,1.37295 -2.2188,2.09375 0.4453,0.72064 -0.2393,6.90848 -1.5312,13.71875 -1.2919,6.81027 -2.3438,12.64274 -2.3438,12.96875 0,0.326 0.6653,0.59375 1.4688,0.59375 0.8034,0 2.2002,-2.91119 3.125,-6.46875 0.9245,-3.55756 2.3419,-8.58553 3.125,-11.15625 0.783,-2.57058 1.4062,-6.42954 1.4062,-8.59375 0,-2.38372 -0.3362,-3.32575 -1.5312,-3.375 z m 142.8125,3.875 c -1.1405,0.0538 -2.9903,0.72451 -5.875,1.9375 -3.2304,1.35819 -4.1933,2.35911 -2.8125,2.90625 1.165,0.46192 3.9793,0.90335 6.2812,0.96875 3.2107,0.0921 4.1875,-0.60237 4.1875,-2.9375 0,-2.02476 -0.315,-2.94416 -1.7812,-2.875 z m -178.875,2.96875 c -1.2657,-0.03 -2.5163,0.93693 -3.0313,2.90625 -0.4305,1.64645 -2.0725,3.40355 -3.6562,3.90625 -1.5838,0.5027 -2.9063,1.66166 -2.9063,2.5625 0,1.10494 -3.4044,1.31282 -10.4687,0.65625 -8.7547,-0.81364 -10.8207,-0.54764 -12.5625,1.59375 -1.7871,2.19708 -1.7393,2.43529 0.2187,1.71875 1.2556,-0.45932 3.6384,-0.28736 5.3125,0.375 5.5333,2.18933 17.5132,1.61507 18.4688,-0.875 0.4799,-1.25073 1.3695,-1.96404 1.9687,-1.59375 0.5992,0.37044 3.216,-0.60847 5.8125,-2.1875 3.5301,-2.14686 4.5199,-3.65361 3.9063,-6 -0.5215,-1.99399 -1.7968,-3.03252 -3.0625,-3.0625 z m -73.6563,0.6875 1.9063,4.5625 c 1.0366,2.51121 3.1106,5.95933 4.625,7.6875 1.5144,1.72803 2.75,4.19731 2.75,5.46875 0,1.27144 0.4731,2.7544 1.0312,3.3125 1.3957,1.39563 3.1938,1.27601 4.1563,-0.28125 0.4421,-0.71547 -0.8707,-2.8708 -2.9375,-4.8125 -2.0669,-1.9417 -3.7824,-4.28712 -3.8125,-5.1875 -0.03,-0.90039 -1.7726,-3.67629 -3.875,-6.1875 l -3.8438,-4.5625 z m 175.0313,2.34375 c -0.1815,-0.0837 -0.8074,0.47573 -2,1.59375 -1.6008,1.50064 -2.9305,5.83591 -3.4688,11.40625 -0.5946,6.15446 -0.3541,8.51037 0.7188,7.46875 0.862,-0.83707 1.8615,-4.60817 2.2187,-8.375 0.3574,-3.76682 1.1952,-8.20086 1.875,-9.875 0.5704,-1.40492 0.8377,-2.13508 0.6563,-2.21875 z m 89.8437,4.5 c 0.8864,0 1.625,0.66293 1.625,1.5 0,0.83707 -0.3183,1.53125 -0.6875,1.53125 -0.3691,0 -1.0764,-0.69418 -1.5937,-1.53125 -0.5174,-0.83707 -0.2303,-1.5 0.6562,-1.5 z m 39.9375,6.09375 c 2.8658,0.0149 2.2924,0.73345 -3.0937,3.8125 -7.7824,4.44882 -8.009,4.5055 -6.8438,1.46875 1.1508,-2.9987 5.4683,-5.30405 9.9375,-5.28125 z m -312.9687,0.0625 c -0.5576,0.0383 -1.5522,0.30018 -2.9688,0.84375 -1.6897,0.64835 -2.40625,2.93237 -2.40625,7.625 0,6.24366 0.26892,6.68746 4.09375,6.68746 3.5903,0 3.7769,-0.2386 1.5938,-1.9062 -4.0069,-3.0608 -4.9576,-9.70568 -1.6563,-11.62501 1.9212,-1.11702 2.2731,-1.6888 1.3438,-1.625 z m 9.625,3.46875 c -1.515,-0.11578 -2.8438,0.9708 -2.8438,3.5625 0,1.11605 1.0619,2.03125 2.3438,2.03125 1.2818,0 2.7056,1.02564 3.1875,2.28125 1.386,3.61206 2.1516,2.67296 1.7812,-2.1875 -0.2596,-3.40752 -2.521,-5.53863 -4.4687,-5.6875 z m 38.9687,2.84375 c -0.4525,-0.0609 -1.239,0.12954 -2.4062,0.5 -1.927,0.61167 -4.5491,2.19234 -5.8438,3.5 -2.1264,2.14762 -2.0802,2.26646 0.4375,1.3125 1.6228,-0.61487 4.1473,-0.0914 6.0625,1.25001 1.8091,1.2672 4.2226,1.9615 5.3438,1.5312 1.1211,-0.4302 3.0003,-0.7812 4.1875,-0.7812 1.1871,0 2.1562,-0.6531 2.1562,-1.43751 0,-0.78868 -2.4578,-1.02497 -5.5,-0.53125 -5.1644,0.83799 -5.4257,0.68068 -4.4062,-2.53125 0.603,-1.89996 0.7229,-2.71102 -0.031,-2.8125 z m -40.2812,5.78125 c -0.8371,0 -1.5313,0.69416 -1.5313,1.53126 0,0.8371 0.6942,1.5312 1.5313,1.5312 0.837,0 1.5312,-0.6941 1.5312,-1.5312 0,-0.8371 -0.6942,-1.53126 -1.5312,-1.53126 z m 194.7187,0.125 c 0.3947,-0.0351 0.6926,0.0218 0.8438,0.1875 0.2356,0.25843 -2.2441,2.33096 -5.5,4.62496 -4.5437,3.2015 -5.9063,3.6133 -5.9063,1.8125 0,-1.7598 7.7996,-6.37939 10.5625,-6.62496 z m 8.875,1.71876 c 1.1816,-0.02 1.6513,0.312 1.1875,1.0625 -0.7683,1.243 0.01,1.7154 2.4375,1.5 6.4089,-0.5686 9.1332,0.104 8,1.9375 -0.5993,0.9705 -0.4403,1.3477 0.375,0.8437 2.0355,-1.258 11.898,2.3086 15.5625,5.625 1.6571,1.4998 3.7525,2.2582 4.625,1.7188 2.1989,-1.359 7.7188,1.8388 7.7188,4.4687 0,3.0808 -10.546,4.9067 -12.2813,2.125 -1.024,-1.6412 -1.9189,-1.7179 -4.0312,-0.3437 -1.4888,0.9684 -2.5578,2.4457 -2.375,3.2812 0.6533,2.9869 -3.9622,3.1933 -4.9063,0.2188 -1.5624,-4.9229 -13.5533,-4.035 -21.9062,1.625 -7.0426,4.7721 -8.1361,5.1765 -9.7813,3.5312 -1.8306,-1.8306 -1.0828,-3.4723 3.4375,-7.5 4.7654,-4.2462 4.7643,-7.4416 0,-8.6875 -4.4535,-1.1646 -3.6633,-6.4956 1.25,-8.4375 4.7922,-1.894 8.7181,-2.9353 10.6875,-2.9687 z m 66.0625,0.094 c -0.8793,0.01 -1.9023,0.763 -3.375,2.3437 -3.5341,3.7935 -3.282,3.9484 2.5,1.75 3.1442,-1.1954 3.7088,-2.0099 2.375,-3.3437 -0.5002,-0.5002 -0.9724,-0.7553 -1.5,-0.75 z m -178.5625,1.5 c 0.9367,-0.1338 1.75,0.4374 1.75,1.7812 0,1.3254 -1.0809,2.4063 -2.4062,2.4063 -1.3254,0 -2.1439,-0.8185 -1.8125,-1.8125 0.4703,-1.411 1.532,-2.2412 2.4687,-2.375 z m 184.4688,2.6562 c -0.7877,0 -1.8577,0.6942 -2.375,1.5313 -0.5174,0.8371 0.1324,1.5 1.4375,1.5 1.3049,0 2.375,-0.6629 2.375,-1.5 0,-0.8371 -0.6498,-1.5313 -1.4375,-1.5313 z m -251.4375,0.3438 c -2.1805,0.013 -2.5381,0.3952 -1.3125,1.1875 2.6191,1.6933 13.2516,2.0641 11.5937,0.4062 -0.6024,-0.6023 -3.9556,-1.2778 -7.4687,-1.5 -1.1431,-0.072 -2.0857,-0.098 -2.8125,-0.094 z m 187.3125,1.2187 c -1.319,-0.03 -4.0029,1.6574 -5.9688,3.75 -4.5885,4.8843 -2.1569,4.93 3.7813,0.062 3.0923,-2.5346 3.8117,-3.776 2.1875,-3.8125 z m -211.1875,6.0625 c -1.9908,0 -2.6773,0.9625 -2.4063,3.4063 0.2089,1.8834 0.4303,3.567 0.5,3.75 0.07,0.1831 1.1506,-0.05 2.4063,-0.5313 3.3095,-1.27 2.9065,-6.625 -0.5,-6.625 z m -41.375054,6.4063 c -0.50485,0.045 -1.19032,0.2398 -2.03125,0.5625 -1.37061,0.5258 -2.08201,1.5849 -1.59375,2.375 0.52929,0.8564 1.76024,0.7057 3.0625,-0.375 2.01201,-1.6699 2.07705,-2.6988 0.5625,-2.5625 z"
       id="path3107"
       inkscape:connector-curvature="0" />
  </g>
</svg>
